<svg width="46" height="46" viewBox="0 0 46 46" fill="none" xmlns="http://www.w3.org/2000/svg">
<path d="M22.9999 0C10.3095 0 -6.10352e-05 10.3095 -6.10352e-05 23C-6.10352e-05 27.0791 1.11863 30.8859 2.98431 34.209L0.0370483 44.7305C-0.010037 44.8988 -0.0121644 45.0766 0.0308781 45.246C0.0739206 45.4155 0.160629 45.5707 0.282359 45.6962C0.404088 45.8217 0.556585 45.913 0.724645 45.9612C0.892704 46.0094 1.07045 46.0127 1.24017 45.9707L12.2109 43.252C15.4346 44.9729 19.0925 46 22.9999 46C35.6904 46 45.9999 35.6905 45.9999 23C45.9999 10.3095 35.6904 0 22.9999 0ZM22.9999 2C34.6095 2 43.9999 11.3905 43.9999 23C43.9999 34.6095 34.6095 44 22.9999 44C19.278 44 15.7921 43.0296 12.7617 41.334C12.54 41.2101 12.2796 41.1752 12.0331 41.2363L2.42572 43.6172L5.00189 34.4258C5.03875 34.2959 5.04893 34.1599 5.03181 34.0259C5.01469 33.892 4.97063 33.7629 4.90228 33.6465C3.06063 30.5236 1.99994 26.8901 1.99994 23C1.99994 11.3905 11.3904 2 22.9999 2ZM14.6425 11C14.0015 11 13.086 11.2385 12.3339 12.0488C11.8822 12.5355 9.99994 14.3695 9.99994 17.5938C9.99994 20.9553 12.3313 23.8558 12.6132 24.2285H12.6152V24.2305C12.5884 24.1953 12.973 24.7522 13.4863 25.4199C13.9996 26.0877 14.7173 26.9646 15.6191 27.9141C17.4226 29.8129 19.9582 32.0074 23.1054 33.3496C24.5547 33.9668 25.6981 34.3394 26.5644 34.6113C28.1698 35.1154 29.632 35.0388 30.7304 34.877C31.5526 34.7559 32.4568 34.3611 33.3515 33.7949C34.2462 33.2287 35.123 32.5247 35.5097 31.4551C35.7867 30.6882 35.9275 29.9796 35.9785 29.3965C36.0039 29.1049 36.0071 28.8476 35.9882 28.6094C35.9692 28.3711 35.9895 28.1887 35.7675 27.8242C35.3019 27.0598 34.7747 27.0399 34.2245 26.7676C33.9189 26.6163 33.0486 26.1913 32.1757 25.7754C31.3038 25.3599 30.5489 24.992 30.0839 24.8262C29.7902 24.7205 29.4315 24.5684 28.914 24.627C28.3965 24.6856 27.8854 25.0589 27.5878 25.5C27.3058 25.9181 26.1703 27.2583 25.8242 27.6523C25.8196 27.6495 25.8496 27.6634 25.7128 27.5957C25.2847 27.3838 24.7611 27.2037 23.9863 26.7949C23.2114 26.3862 22.2422 25.7826 21.1816 24.8477V24.8457C19.603 23.4559 18.4972 21.7111 18.1484 21.125C18.1719 21.097 18.1456 21.1309 18.1953 21.082L18.1972 21.0801C18.5537 20.7289 18.8697 20.3095 19.1367 20.002C19.5152 19.5659 19.6822 19.1814 19.8632 18.8223C20.2239 18.1064 20.0231 17.3187 19.8144 16.9043V16.9023C19.8288 16.931 19.7015 16.6502 19.5644 16.3262C19.4269 16.0013 19.2516 15.58 19.0644 15.1309C18.69 14.2325 18.272 13.2249 18.0234 12.6348V12.6328C17.7305 11.9377 17.3343 11.4369 16.8163 11.1953C16.2984 10.9537 15.8407 11.0224 15.8222 11.0215H15.8203C15.4506 11.0044 15.045 11 14.6425 11ZM14.6425 13C15.0281 13 15.4082 13.0047 15.7265 13.0195C16.054 13.0359 16.0336 13.0372 15.9706 13.0078C15.9067 12.978 15.9935 12.9683 16.1796 13.4102C16.423 13.988 16.8431 14.9992 17.2187 15.9004C17.4065 16.351 17.5822 16.7738 17.7226 17.1055C17.863 17.4371 17.939 17.6223 18.0273 17.7988V17.8008L18.0292 17.8027C18.1158 17.9735 18.1081 17.8642 18.0781 17.9238C17.867 18.3427 17.8384 18.4455 17.6249 18.6914C17.2999 19.0658 16.9684 19.4834 16.7929 19.6562C16.6394 19.8071 16.3624 20.042 16.1894 20.502C16.0162 20.9626 16.097 21.5946 16.3749 22.0664C16.745 22.6946 17.9643 24.6793 19.8593 26.3477C21.0527 27.3997 22.1645 28.0959 23.0527 28.5645C23.9408 29.033 24.6642 29.3066 24.8261 29.3867C25.2105 29.577 25.6306 29.7247 26.1191 29.666C26.6076 29.6074 27.0287 29.311 27.2968 29.0078L27.2988 29.0059C27.6556 28.6013 28.7158 27.3907 29.2245 26.6445C29.2461 26.6521 29.239 26.6462 29.4081 26.707V26.709H29.4101C29.4873 26.7365 30.4542 27.1693 31.3163 27.5801C32.1785 27.9909 33.0535 28.4179 33.3378 28.5586C33.7482 28.7617 33.9421 28.8939 33.9921 28.8945C33.9955 28.9825 33.9989 29.0779 33.9863 29.2227C33.9512 29.6243 33.8438 30.1802 33.6288 30.7754C33.5235 31.0667 32.975 31.6677 32.2831 32.1055C31.5913 32.5433 30.7493 32.8525 30.4374 32.8984C29.4998 33.0366 28.3866 33.087 27.164 32.7031C26.3163 32.437 25.2592 32.0926 23.8906 31.5098C21.1147 30.326 18.7555 28.3115 17.0703 26.5371C16.2276 25.6499 15.5525 24.824 15.0722 24.1992C14.5928 23.5756 14.3835 23.2511 14.2089 23.0215L14.207 23.0195C13.8971 22.6098 11.9999 19.9709 11.9999 17.5938C11.9999 15.078 13.1684 14.0914 13.8007 13.4102C14.1327 13.0525 14.4956 13 14.6425 13Z" fill="black"/>
</svg>
